<?xml version="1.0" encoding="utf-8"?>
<svg version="1.1" xmlns:xlink="http://www.w3.org/1999/xlink" width="12px" height="12px" viewBox="309 45  12 12" xmlns="http://www.w3.org/2000/svg">
  <path d="M 309.5 47  A 1.5 1.5 0 0 1 311 45.5 L 319 45.5  A 1.5 1.5 0 0 1 320.5 47 L 320.5 55  A 1.5 1.5 0 0 1 319 56.5 L 311 56.5  A 1.5 1.5 0 0 1 309.5 55 L 309.5 47  Z " fill-rule="nonzero" fill="#555555" stroke="none" />
  <path d="M 309.5 47  A 1.5 1.5 0 0 1 311 45.5 L 319 45.5  A 1.5 1.5 0 0 1 320.5 47 L 320.5 55  A 1.5 1.5 0 0 1 319 56.5 L 311 56.5  A 1.5 1.5 0 0 1 309.5 55 L 309.5 47  Z " stroke-width="1" stroke="#f59a23" fill="none" />
  <path d="M 311.571428571429 51  L 314.142857142857 53.5714285714286  L 318.428571428571 47.5714285714286  " stroke-width="2.57142857142857" stroke="#f59a23" fill="none" />
</svg>